<svg xmlns="http://www.w3.org/2000/svg" width="388.852" height="47.162" fill="#fff" viewBox="0 0 388.85187 47.162361"><g fill="#fff"><path d="M62.12 1.53c1.04-.03 2.13.78 2.55 2.13.15.52.1 1.26.43 1.57 2.02 1.85 5.34 1.6 6.04 4.9.15.7 2 2.28 2.95 3.16.8.76 2 2.12 1.77 2.85-.5 1.66-1.15 3.65-3.64 3.6-3.64-.06-7.3-.04-10.94 0-4.67.04-7.45 2.82-7.5 7.52-.06 3.83.06 7.66-.04 11.5-.08 3 1.25 4.66 4.18 5.35.93.2 1.5 1.1.84 1.9-.8 1-4.3 1-4.4 1-2.78.3-6.48-.72-8.76-6.42-1.3 1.7-2.22 2.56-3.42 2.95-.7.23-4.17 1.1-4.3.32-.25-1.45 3.9-5.05 4.07-6.5.3-2.85-2.16-3.9-5.03-4.62-2.9-.73-6 .58-7.3 1.95-1.8 1.9-1.7 7.8-.76 8.27.52.27 1.47.8 1.5 1.6.02.6-.75 1.5-1.2 1.53-2.5.16-5.02.25-7.47-.06-.65-.08-1.6-1.66-1.6-2.55.04-2.88-5.5-7.9-6.4-6.6-1.52 2.14-6.04 3.22-5.5 6.03.34 1.8 3.9.6 4.25 2.03.76 3.17-6.8 2.08-9.87 1.7-2.58-.35-3.63-1.85-1.32-6.9C4 34.6 4.42 29.33 3.96 23.56 2.98 11.1 11.46 2.5 24 2.8c10.9.27 21.9-.17 32.7 1.3 6.1.85 2.72.13 3.77-1.56.42-.68 1.03-1 1.65-1z"/><g style="line-height:125%;-inkscape-font-specification:Open Sans" font-size="64" letter-spacing="0" word-spacing="0" font-family="Open Sans" font-weight="bold"><path d="M95.5.66h14.23c6.48 0 11.18.92 14.1 2.76 2.93 1.85 4.4 4.78 4.4 8.8 0 2.73-.64 4.97-1.93 6.72-1.28 1.75-2.98 2.8-5.1 3.15v.3c2.9.64 4.98 1.85 6.26 3.62 1.28 1.77 1.92 4.13 1.92 7.06 0 4.16-1.5 7.4-4.5 9.74-3.02 2.34-7.1 3.5-12.28 3.5H95.5zm9.7 18.1h5.62c2.63 0 4.53-.42 5.7-1.23 1.18-.8 1.77-2.15 1.77-4.03 0-1.75-.66-3-1.94-3.77-1.28-.76-3.3-1.14-6.08-1.14h-5.1zm0 7.68v11.9h6.3c2.67 0 4.64-.5 5.9-1.53 1.3-1 1.92-2.56 1.92-4.66 0-3.8-2.7-5.7-8.12-5.7zM152.23 17.53c-2.02 0-3.6.64-4.75 1.92-1.15 1.28-1.8 3.1-1.97 5.46h13.4c-.05-2.34-.66-4.16-1.85-5.44-1.2-1.28-2.8-1.92-4.8-1.92zm1.34 29.44c-5.62 0-10.02-1.55-13.2-4.66-3.15-3.1-4.74-7.5-4.74-13.16 0-5.86 1.47-10.4 4.4-13.58 2.92-3.2 6.97-4.8 12.13-4.8 4.94 0 8.8 1.4 11.54 4.22 2.75 2.8 4.12 6.7 4.12 11.65v4.63H145.3c.1 2.7.9 4.82 2.4 6.34 1.5 1.5 3.6 2.28 6.3 2.27 2.1 0 4.1-.2 5.98-.65 1.87-.44 3.83-1.14 5.87-2.1v7.38c-1.66.83-3.45 1.45-5.34 1.86-1.9.4-4.2.6-6.92.6zM197.82 46.34l-1.84-4.75h-.25c-1.6 2-3.26 3.4-4.96 4.2-1.7.77-3.9 1.16-6.64 1.16-3.35 0-6-.96-7.92-2.88s-2.87-4.65-2.87-8.2c0-3.7 1.3-6.44 3.9-8.2 2.58-1.76 6.5-2.73 11.73-2.92l6.06-.2v-1.52c0-3.54-1.8-5.3-5.43-5.3-2.8 0-6.08.83-9.85 2.52l-3.16-6.44c4-2.1 8.47-3.15 13.37-3.15 4.68 0 8.28 1 10.78 3.05 2.5 2.04 3.75 5.15 3.75 9.3v23.3zm-2.8-16.18l-3.7.12c-2.77.08-4.83.58-6.2 1.5-1.34.92-2.02 2.3-2.02 4.2 0 2.68 1.54 4.02 4.63 4.02 2.2 0 3.97-.64 5.3-1.9 1.32-1.28 1.98-2.96 1.98-5.07zM233.76 10.75c1.3 0 2.36.1 3.22.28l-.72 8.94c-.77-.2-1.7-.3-2.8-.3-3.06 0-5.43.77-7.12 2.33-1.7 1.56-2.55 3.75-2.55 6.56v17.78h-9.55V11.4h7.22l1.4 5.88h.47c1.1-1.96 2.55-3.54 4.4-4.73 1.84-1.2 3.84-1.8 6-1.8zM280.16 8.06c-3.64 0-6.46 1.37-8.46 4.1-2 2.75-3 6.57-3 11.46 0 10.2 3.82 15.3 11.46 15.3 3.2 0 7.1-.82 11.66-2.42v8.13c-3.75 1.56-7.94 2.34-12.56 2.34-6.65 0-11.73-2.02-15.25-6.05-3.5-4.03-5.26-9.82-5.26-17.36 0-4.75.86-8.9 2.6-12.48 1.72-3.57 4.2-6.3 7.44-8.22C272 .96 275.8 0 280.18 0c4.42 0 8.9 1.07 13.36 3.22l-3.13 7.87c-1.7-.83-3.4-1.54-5.13-2.14-1.73-.6-3.43-.9-5.1-.9zM320.85 46.34l-11-35.84h-.28c.4 7.3.6 12.16.6 14.6v21.24h-8.66V.66h13.2l10.8 34.93h.2L337.17.64h13.2v45.68h-9.04v-21.6c0-1.03.02-2.2.05-3.54.03-1.36.17-4.9.42-10.65h-.3L329.7 46.33zM388.85 33.66c0 4.12-1.48 7.37-4.45 9.75S377.3 47 372 47c-4.87 0-9.18-.92-12.93-2.75v-9c3.08 1.37 5.7 2.34 7.83 2.9 2.13.57 4.1.85 5.86.85 2.12 0 3.75-.4 4.9-1.22 1.12-.8 1.7-2.02 1.7-3.63 0-.9-.26-1.7-.76-2.4-.5-.68-1.23-1.36-2.2-2-.97-.65-2.94-1.68-5.92-3.1-2.8-1.3-4.9-2.57-6.28-3.78-1.4-1.2-2.5-2.6-3.35-4.2-.83-1.62-1.25-3.5-1.25-5.64 0-4.03 1.37-7.2 4.1-9.52 2.75-2.3 6.54-3.47 11.37-3.47 2.38 0 4.64.3 6.8.85 2.15.57 4.4 1.36 6.76 2.38l-3.12 7.53c-2.42-1-4.44-1.7-6.03-2.1-1.6-.4-3.16-.6-4.7-.6-1.84 0-3.24.44-4.22 1.3-.98.85-1.47 1.96-1.47 3.34 0 .84.2 1.6.6 2.22.4.64 1.02 1.25 1.88 1.85.87.6 2.92 1.66 6.15 3.2 4.28 2.04 7.2 4.1 8.8 6.14 1.57 2.07 2.36 4.6 2.36 7.57z" style="-inkscape-font-specification:Open Sans Bold"/></g></g></svg>